<svg id="b2f4e985-fead-4686-bfc8-9ff7e7235a63" data-name="Layer 1" xmlns="http://www.w3.org/2000/svg" width="6.84in" height="5.86in" viewBox="0 0 492.38 422.27"><polyline points="95.88 66.91 248.47 66.91 248.47 131.47 96.05 131.47" fill="none" stroke="#0e416b" stroke-miterlimit="14.3" stroke-width="1.5" fill-rule="evenodd"/><polygon points="193.48 66.83 173.07 87.11 123.15 87.11 123.15 46.55 173.07 46.55 193.48 66.83" fill="#6ecce0" stroke="#0e416b" stroke-miterlimit="14.3" stroke-width="1.5" fill-rule="evenodd"/><path d="M139.15,61.94h3.7c2.22,0,3.88,1.39,3.88,4.23,0,2.48-1.27,4.33-3.88,4.33h-3.7Zm1.89,7h1.68c1.09,0,2.13-.68,2.13-2.57,0-1.73-.6-2.83-2.47-2.83H141Z" fill="#0e416b"/><path d="M150.39,61.94h1.93l3.2,8.56h-2l-.64-1.91h-3.21L149,70.5h-1.9Zm-.18,5.25h2.21l-1.08-3.14h0Z" fill="#0e416b"/><path d="M162,64.81a1.86,1.86,0,0,0-1.88-1.5c-1.69,0-2.32,1.44-2.32,2.94s.63,2.87,2.32,2.87a1.93,1.93,0,0,0,2-1.92h1.82a3.61,3.61,0,0,1-3.77,3.5,4.13,4.13,0,0,1-4.21-4.45c0-2.54,1.56-4.52,4.21-4.52a3.48,3.48,0,0,1,3.7,3.08Z" fill="#0e416b"/><path d="M231.14,68.12a10.68,10.68,0,1,1-10.68-10.56,10.67,10.67,0,0,1,10.68,10.56Z" fill="#6ecce0" stroke="#0e416b" stroke-miterlimit="14.3" stroke-width="1.5" fill-rule="evenodd"/><line x1="227.6" y1="60.87" x2="213.38" y2="75.14" fill="none" stroke="#0e416b" stroke-miterlimit="14.3" stroke-width="1.5"/><line x1="227.6" y1="75.01" x2="213.45" y2="61" fill="none" stroke="#0e416b" stroke-miterlimit="14.3" stroke-width="1.5"/><polygon points="193.48 130.88 173.07 151.16 123.15 151.16 123.15 110.6 173.07 110.6 193.48 130.88" fill="#6ecce0" stroke="#0e416b" stroke-miterlimit="14.3" stroke-width="1.5" fill-rule="evenodd"/><path d="M141.49,126h1.93l3.21,8.56h-2l-.65-1.91h-3.2l-.67,1.91h-1.91Zm-.18,5.25h2.22l-1.08-3.14h0Z" fill="#0e416b"/><path d="M147.37,126h3.7c2.22,0,3.88,1.39,3.88,4.23,0,2.48-1.27,4.33-3.88,4.33h-3.7Zm1.89,7h1.68c1.09,0,2.13-.67,2.13-2.57,0-1.73-.6-2.83-2.47-2.83h-1.34Z" fill="#0e416b"/><path d="M162,128.87a1.85,1.85,0,0,0-1.88-1.5c-1.69,0-2.32,1.44-2.32,2.93s.63,2.87,2.32,2.87a1.93,1.93,0,0,0,2-1.92h1.82a3.61,3.61,0,0,1-3.77,3.5,4.13,4.13,0,0,1-4.21-4.45c0-2.54,1.56-4.52,4.21-4.52a3.48,3.48,0,0,1,3.7,3.09Z" fill="#0e416b"/><path d="M231.14,132.18a10.68,10.68,0,1,1-10.68-10.56,10.67,10.67,0,0,1,10.68,10.56Z" fill="#6ecce0" stroke="#0e416b" stroke-miterlimit="14.3" stroke-width="1.5" fill-rule="evenodd"/><line x1="227.6" y1="124.92" x2="213.38" y2="139.2" fill="none" stroke="#0e416b" stroke-miterlimit="14.3" stroke-width="1.5"/><line x1="227.6" y1="139.06" x2="213.45" y2="125.05" fill="none" stroke="#0e416b" stroke-miterlimit="14.3" stroke-width="1.5"/><rect x="236.06" y="87.51" width="26.89" height="26.34" transform="translate(499.01 201.36) rotate(180)" fill="#6ecce0" stroke="#0e416b" stroke-miterlimit="14.3" stroke-width="1.5"/><path d="M245.76,87.36a2.72,2.72,0,1,0,2.71-2.71A2.71,2.71,0,0,0,245.76,87.36Z" fill="#fff" stroke="#0e416b" stroke-miterlimit="14.3" stroke-width="1.5"/><path d="M245.76,113.38a2.72,2.72,0,1,0,2.71-2.71A2.71,2.71,0,0,0,245.76,113.38Z" fill="#fff" stroke="#0e416b" stroke-miterlimit="14.3" stroke-width="1.5"/><path d="M263,98.9a2.72,2.72,0,1,0,2.71,2.71A2.71,2.71,0,0,0,263,98.9Z" fill="#fff" stroke="#0e416b" stroke-miterlimit="14.3" stroke-width="1.5"/><line x1="273.62" y1="101.61" x2="265.91" y2="101.61" fill="none" stroke="#0e416b" stroke-miterlimit="14.3" stroke-width="1.5"/><line x1="259.95" y1="101.57" x2="245.31" y2="89.36" fill="none" stroke="#0e416b" stroke-miterlimit="14.3" stroke-width="1.5"/><rect x="288.98" y="118.84" width="173.18" height="82.5" fill="#6ecce0" stroke="#0e416b" stroke-miterlimit="14.3" stroke-width="1.5"/><polyline points="309.25 143.38 309.25 139.69 440.63 139.69 440.63 144.6" fill="none" stroke="#0e416b" stroke-miterlimit="14.3" stroke-width="1.5"/><polyline points="309.25 172.92 309.25 180.63 440.63 180.63 440.63 175.72" fill="none" stroke="#0e416b" stroke-miterlimit="14.3" stroke-width="1.5"/><rect x="428.21" y="146.5" width="26.89" height="26.34" transform="translate(883.32 319.34) rotate(-180)" fill="#b6e6ef" stroke="#0e416b" stroke-miterlimit="14.3" stroke-width="1.5"/><path d="M437.92,146.35a2.71,2.71,0,1,0,2.71-2.71A2.71,2.71,0,0,0,437.92,146.35Z" fill="#fff" stroke="#0e416b" stroke-miterlimit="14.3" stroke-width="1.5"/><path d="M455.11,157.89a2.71,2.71,0,1,0,2.71,2.71A2.71,2.71,0,0,0,455.11,157.89Z" fill="#fff" stroke="#0e416b" stroke-miterlimit="14.3" stroke-width="1.5"/><line x1="479.79" y1="160.6" x2="458.07" y2="160.6" fill="none" stroke="#0e416b" stroke-miterlimit="14.3" stroke-width="1.5"/><line x1="452.11" y1="160.56" x2="437.47" y2="148.35" fill="none" stroke="#0e416b" stroke-miterlimit="14.3" stroke-width="1.5"/><rect x="294.77" y="146.5" width="26.89" height="26.34" fill="#b6e6ef" stroke="#0e416b" stroke-miterlimit="14.3" stroke-width="1.5"/><path d="M312,146.35a2.72,2.72,0,1,1-2.71-2.71A2.72,2.72,0,0,1,312,146.35Z" fill="#fff" stroke="#0e416b" stroke-miterlimit="14.3" stroke-width="1.5"/><path d="M437.92,172.37a2.71,2.71,0,1,0,2.71-2.71A2.71,2.71,0,0,0,437.92,172.37Z" fill="#fff" stroke="#0e416b" stroke-miterlimit="14.3" stroke-width="1.5"/><path d="M312,172.37a2.72,2.72,0,1,1-2.71-2.71A2.72,2.72,0,0,1,312,172.37Z" fill="#fff" stroke="#0e416b" stroke-miterlimit="14.3" stroke-width="1.5"/><path d="M294.77,157.89a2.71,2.71,0,1,1-2.71,2.71A2.71,2.71,0,0,1,294.77,157.89Z" fill="#fff" stroke="#0e416b" stroke-miterlimit="14.3" stroke-width="1.5"/><line x1="297.77" y1="160.56" x2="312.4" y2="148.35" fill="none" stroke="#0e416b" stroke-miterlimit="14.3" stroke-width="1.5"/><polygon points="350.99 169.39 331.42 180.69 350.99 191.99 350.99 169.39" fill="#b6e6ef" stroke="#0e416b" stroke-miterlimit="14.3" stroke-width="1.5"/><line x1="349.61" y1="195.3" x2="331.42" y2="163.86" fill="#0e416b"/><line x1="349.61" y1="195.3" x2="336.75" y2="173.06" fill="none" stroke="#0e416b" stroke-miterlimit="14.3" stroke-width="1.5"/><polygon points="340.95 173.38 331.42 163.86 334.92 176.87 340.95 173.38" fill="#0e416b"/><polygon points="417.04 169.39 397.47 180.69 417.04 191.99 417.04 169.39" fill="#b6e6ef" stroke="#0e416b" stroke-miterlimit="14.3" stroke-width="1.5"/><path d="M367,180.69a10.68,10.68,0,1,0,10.68-10.56A10.67,10.67,0,0,0,367,180.69Z" fill="#b6e6ef" stroke="#0e416b" stroke-miterlimit="14.3" stroke-width="1.5" fill-rule="evenodd"/><line x1="385.64" y1="195.3" x2="367.45" y2="163.86" fill="#0e416b"/><line x1="385.64" y1="195.3" x2="372.77" y2="173.06" fill="none" stroke="#0e416b" stroke-miterlimit="14.3" stroke-width="1.5"/><polygon points="376.98 173.38 367.45 163.86 370.95 176.87 376.98 173.38" fill="#0e416b"/><polygon points="331.17 127.86 350.73 139.16 331.17 150.46 331.17 127.86" fill="#b6e6ef" stroke="#0e416b" stroke-miterlimit="14.3" stroke-width="1.5"/><line x1="332.54" y1="153.77" x2="350.73" y2="122.33" fill="#0e416b"/><line x1="332.54" y1="153.77" x2="345.41" y2="131.53" fill="none" stroke="#0e416b" stroke-miterlimit="14.3" stroke-width="1.5"/><polygon points="347.23 135.34 350.73 122.33 341.2 131.84 347.23 135.34" fill="#0e416b"/><polygon points="397.22 127.86 416.79 139.16 397.22 150.46 397.22 127.86" fill="#b6e6ef" stroke="#0e416b" stroke-miterlimit="14.3" stroke-width="1.5"/><path d="M388.15,139.16a10.68,10.68,0,1,1-10.68-10.56,10.67,10.67,0,0,1,10.68,10.56Z" fill="#b6e6ef" stroke="#0e416b" stroke-miterlimit="14.3" stroke-width="1.5" fill-rule="evenodd"/><line x1="369.55" y1="153.77" x2="387.74" y2="122.33" fill="#0e416b"/><line x1="369.55" y1="153.77" x2="382.41" y2="131.53" fill="none" stroke="#0e416b" stroke-miterlimit="14.3" stroke-width="1.5"/><polygon points="384.24 135.34 387.74 122.33 378.2 131.84 384.24 135.34" fill="#0e416b"/><polygon points="491.08 140.68 479.79 160.24 468.49 140.68 491.08 140.68" fill="#b1b3b6" stroke="#0e416b" stroke-miterlimit="14.3" stroke-width="1.5"/><rect x="288.98" y="0.75" width="173.18" height="82.5" fill="#6ecce0" stroke="#0e416b" stroke-miterlimit="14.3" stroke-width="1.5"/><polyline points="309.25 25.29 309.25 21.59 440.63 21.59 440.63 26.5" fill="none" stroke="#0e416b" stroke-miterlimit="14.3" stroke-width="1.5"/><polyline points="309.25 54.83 309.25 62.53 440.63 62.53 440.63 57.62" fill="none" stroke="#0e416b" stroke-miterlimit="14.3" stroke-width="1.5"/><rect x="428.21" y="28.4" width="26.89" height="26.34" transform="translate(883.32 83.15) rotate(-180)" fill="#b6e6ef" stroke="#0e416b" stroke-miterlimit="14.3" stroke-width="1.5"/><path d="M437.92,28.26a2.71,2.71,0,1,0,2.71-2.72A2.71,2.71,0,0,0,437.92,28.26Z" fill="#fff" stroke="#0e416b" stroke-miterlimit="14.3" stroke-width="1.5"/><path d="M455.11,39.79a2.72,2.72,0,1,0,2.71,2.72A2.72,2.72,0,0,0,455.11,39.79Z" fill="#fff" stroke="#0e416b" stroke-miterlimit="14.3" stroke-width="1.5"/><line x1="479.79" y1="42.51" x2="458.07" y2="42.51" fill="none" stroke="#0e416b" stroke-miterlimit="14.3" stroke-width="1.5"/><line x1="452.11" y1="42.47" x2="437.47" y2="30.25" fill="none" stroke="#0e416b" stroke-miterlimit="14.3" stroke-width="1.5"/><rect x="294.77" y="28.4" width="26.89" height="26.34" fill="#b6e6ef" stroke="#0e416b" stroke-miterlimit="14.3" stroke-width="1.5"/><path d="M312,28.26a2.72,2.72,0,1,1-2.71-2.72A2.71,2.71,0,0,1,312,28.26Z" fill="#fff" stroke="#0e416b" stroke-miterlimit="14.3" stroke-width="1.5"/><path d="M437.92,54.28a2.71,2.71,0,1,0,2.71-2.72A2.71,2.71,0,0,0,437.92,54.28Z" fill="#fff" stroke="#0e416b" stroke-miterlimit="14.3" stroke-width="1.5"/><path d="M312,54.28a2.72,2.72,0,1,1-2.71-2.72A2.71,2.71,0,0,1,312,54.28Z" fill="#fff" stroke="#0e416b" stroke-miterlimit="14.3" stroke-width="1.5"/><path d="M294.77,39.79a2.72,2.72,0,1,1-2.71,2.72A2.71,2.71,0,0,1,294.77,39.79Z" fill="#fff" stroke="#0e416b" stroke-miterlimit="14.3" stroke-width="1.5"/><polyline points="291.8 42.51 274.09 42.51 274.09 160.6 291.8 160.6" fill="none" stroke="#0e416b" stroke-miterlimit="14.3" stroke-width="1.5"/><line x1="297.77" y1="42.47" x2="312.4" y2="30.25" fill="none" stroke="#0e416b" stroke-miterlimit="14.3" stroke-width="1.5"/><polygon points="350.99 51.3 331.42 62.6 350.99 73.9 350.99 51.3" fill="#b6e6ef" stroke="#0e416b" stroke-miterlimit="14.3" stroke-width="1.5"/><line x1="349.61" y1="77.21" x2="331.42" y2="45.77" fill="#0e416b"/><line x1="349.61" y1="77.21" x2="336.75" y2="54.97" fill="none" stroke="#0e416b" stroke-miterlimit="14.3" stroke-width="1.5"/><polygon points="340.95 55.28 331.42 45.77 334.92 58.77 340.95 55.28" fill="#0e416b"/><polygon points="417.04 51.3 397.47 62.6 417.04 73.9 417.04 51.3" fill="#b6e6ef" stroke="#0e416b" stroke-miterlimit="14.3" stroke-width="1.5"/><path d="M367,62.6A10.68,10.68,0,1,0,377.72,52,10.67,10.67,0,0,0,367,62.6Z" fill="#b6e6ef" stroke="#0e416b" stroke-miterlimit="14.3" stroke-width="1.5" fill-rule="evenodd"/><line x1="385.64" y1="77.21" x2="367.45" y2="45.77" fill="#0e416b"/><line x1="385.64" y1="77.21" x2="372.77" y2="54.97" fill="none" stroke="#0e416b" stroke-miterlimit="14.3" stroke-width="1.5"/><polygon points="376.98 55.28 367.45 45.77 370.95 58.77 376.98 55.28" fill="#0e416b"/><polygon points="331.17 9.77 350.73 21.07 331.17 32.36 331.17 9.77" fill="#b6e6ef" stroke="#0e416b" stroke-miterlimit="14.3" stroke-width="1.5"/><line x1="332.54" y1="35.67" x2="350.73" y2="4.24" fill="#0e416b"/><line x1="332.54" y1="35.67" x2="345.41" y2="13.44" fill="none" stroke="#0e416b" stroke-miterlimit="14.3" stroke-width="1.5"/><polygon points="347.23 17.24 350.73 4.24 341.2 13.75 347.23 17.24" fill="#0e416b"/><polygon points="397.22 9.77 416.79 21.07 397.22 32.36 397.22 9.77" fill="#b6e6ef" stroke="#0e416b" stroke-miterlimit="14.3" stroke-width="1.5"/><path d="M388.15,21.06a10.68,10.68,0,0,1-21.36,0,10.68,10.68,0,0,1,21.36,0Z" fill="#b6e6ef" stroke="#0e416b" stroke-miterlimit="14.3" stroke-width="1.5" fill-rule="evenodd"/><line x1="369.55" y1="35.67" x2="387.74" y2="4.24" fill="#0e416b"/><line x1="369.55" y1="35.67" x2="382.41" y2="13.44" fill="none" stroke="#0e416b" stroke-miterlimit="14.3" stroke-width="1.5"/><polygon points="384.24 17.24 387.74 4.24 378.2 13.75 384.24 17.24" fill="#0e416b"/><polygon points="491.08 22.58 479.79 42.15 468.49 22.58 491.08 22.58" fill="#b1b3b6" stroke="#0e416b" stroke-miterlimit="14.3" stroke-width="1.5"/><path d="M385.15,98v1.89H383.3V98Zm0,4v1.88H383.3V102Zm0,4v1.88H383.3V106Z" fill="#0e416b"/><path d="M371.39,100.4H373v.86h0a2.21,2.21,0,0,1,1.89-1c1.81,0,2.27,1,2.27,2.56v3.81H375.5v-3.5c0-1-.29-1.53-1.09-1.53s-1.32.52-1.32,1.78v3.25h-1.7Z" fill="#0e416b"/><polyline points="95.88 287.09 248.47 287.09 248.47 351.65 96.05 351.65" fill="none" stroke="#0e416b" stroke-miterlimit="14.3" stroke-width="1.5" fill-rule="evenodd"/><polygon points="193.48 287 173.07 307.28 123.15 307.28 123.15 266.72 173.07 266.72 193.48 287" fill="#6ecce0" stroke="#0e416b" stroke-miterlimit="14.3" stroke-width="1.5" fill-rule="evenodd"/><path d="M139.15,282.11h3.7c2.22,0,3.88,1.39,3.88,4.24,0,2.48-1.27,4.33-3.88,4.33h-3.7Zm1.89,7h1.68c1.09,0,2.13-.67,2.13-2.56,0-1.73-.6-2.83-2.47-2.83H141Z" fill="#0e416b"/><path d="M150.39,282.11h1.93l3.2,8.57h-2l-.64-1.91h-3.21l-.67,1.91h-1.9Zm-.18,5.26h2.21l-1.08-3.15h0Z" fill="#0e416b"/><path d="M162,285a1.86,1.86,0,0,0-1.88-1.5c-1.69,0-2.32,1.44-2.32,2.94s.63,2.87,2.32,2.87a1.94,1.94,0,0,0,2-1.92h1.82a3.62,3.62,0,0,1-3.77,3.5,4.13,4.13,0,0,1-4.21-4.45c0-2.54,1.56-4.52,4.21-4.52a3.47,3.47,0,0,1,3.7,3.08Z" fill="#0e416b"/><path d="M231.14,288.3a10.68,10.68,0,1,1-10.68-10.56,10.67,10.67,0,0,1,10.68,10.56Z" fill="#6ecce0" stroke="#0e416b" stroke-miterlimit="14.3" stroke-width="1.5" fill-rule="evenodd"/><line x1="227.6" y1="281.04" x2="213.38" y2="295.32" fill="none" stroke="#0e416b" stroke-miterlimit="14.3" stroke-width="1.5"/><line x1="227.6" y1="295.19" x2="213.45" y2="281.17" fill="none" stroke="#0e416b" stroke-miterlimit="14.3" stroke-width="1.5"/><polygon points="193.48 351.05 173.07 371.33 123.15 371.33 123.15 330.77 173.07 330.77 193.48 351.05" fill="#6ecce0" stroke="#0e416b" stroke-miterlimit="14.3" stroke-width="1.5" fill-rule="evenodd"/><path d="M141.49,346.16h1.93l3.21,8.57h-2l-.65-1.91h-3.2l-.67,1.91h-1.91Zm-.18,5.26h2.22l-1.08-3.15h0Z" fill="#0e416b"/><path d="M147.37,346.16h3.7c2.22,0,3.88,1.39,3.88,4.24,0,2.48-1.27,4.33-3.88,4.33h-3.7Zm1.89,7h1.68c1.09,0,2.13-.67,2.13-2.56,0-1.73-.6-2.83-2.47-2.83h-1.34Z" fill="#0e416b"/><path d="M162,349a1.86,1.86,0,0,0-1.88-1.5c-1.69,0-2.32,1.44-2.32,2.94s.63,2.87,2.32,2.87a1.93,1.93,0,0,0,2-1.92h1.82a3.62,3.62,0,0,1-3.77,3.5,4.13,4.13,0,0,1-4.21-4.45c0-2.54,1.56-4.52,4.21-4.52a3.47,3.47,0,0,1,3.7,3.08Z" fill="#0e416b"/><path d="M231.14,352.35a10.68,10.68,0,1,1-10.68-10.56,10.67,10.67,0,0,1,10.68,10.56Z" fill="#6ecce0" stroke="#0e416b" stroke-miterlimit="14.3" stroke-width="1.5" fill-rule="evenodd"/><line x1="227.6" y1="345.09" x2="213.38" y2="359.37" fill="none" stroke="#0e416b" stroke-miterlimit="14.3" stroke-width="1.5"/><line x1="227.6" y1="359.24" x2="213.45" y2="345.22" fill="none" stroke="#0e416b" stroke-miterlimit="14.3" stroke-width="1.5"/><rect x="236.06" y="307.69" width="26.89" height="26.34" transform="translate(499.01 641.71) rotate(180)" fill="#6ecce0" stroke="#0e416b" stroke-miterlimit="14.3" stroke-width="1.5"/><path d="M245.76,307.54a2.72,2.72,0,1,0,2.71-2.71A2.71,2.71,0,0,0,245.76,307.54Z" fill="#fff" stroke="#0e416b" stroke-miterlimit="14.3" stroke-width="1.5"/><path d="M245.76,333.56a2.72,2.72,0,1,0,2.71-2.71A2.71,2.71,0,0,0,245.76,333.56Z" fill="#fff" stroke="#0e416b" stroke-miterlimit="14.3" stroke-width="1.5"/><path d="M263,319.07a2.72,2.72,0,1,0,2.71,2.72A2.72,2.72,0,0,0,263,319.07Z" fill="#fff" stroke="#0e416b" stroke-miterlimit="14.3" stroke-width="1.5"/><line x1="273.62" y1="321.79" x2="265.91" y2="321.79" fill="none" stroke="#0e416b" stroke-miterlimit="14.3" stroke-width="1.5"/><line x1="259.95" y1="321.75" x2="245.31" y2="309.53" fill="none" stroke="#0e416b" stroke-miterlimit="14.3" stroke-width="1.5"/><rect x="288.98" y="339.02" width="173.18" height="82.5" fill="#6ecce0" stroke="#0e416b" stroke-miterlimit="14.3" stroke-width="1.5"/><polyline points="309.25 363.56 309.25 359.86 440.63 359.86 440.63 364.77" fill="none" stroke="#0e416b" stroke-miterlimit="14.3" stroke-width="1.5"/><polyline points="309.25 393.1 309.25 400.8 440.63 400.8 440.63 395.89" fill="none" stroke="#0e416b" stroke-miterlimit="14.3" stroke-width="1.5"/><rect x="428.21" y="366.67" width="26.89" height="26.34" transform="translate(883.32 759.69) rotate(-180)" fill="#b6e6ef" stroke="#0e416b" stroke-miterlimit="14.3" stroke-width="1.5"/><path d="M437.92,366.53a2.71,2.71,0,1,0,2.71-2.72A2.71,2.71,0,0,0,437.92,366.53Z" fill="#fff" stroke="#0e416b" stroke-miterlimit="14.3" stroke-width="1.5"/><path d="M455.11,378.06a2.72,2.72,0,1,0,2.71,2.72A2.72,2.72,0,0,0,455.11,378.06Z" fill="#fff" stroke="#0e416b" stroke-miterlimit="14.3" stroke-width="1.5"/><line x1="479.79" y1="380.78" x2="458.07" y2="380.78" fill="none" stroke="#0e416b" stroke-miterlimit="14.3" stroke-width="1.5"/><line x1="452.11" y1="380.74" x2="437.47" y2="368.52" fill="none" stroke="#0e416b" stroke-miterlimit="14.3" stroke-width="1.5"/><rect x="294.77" y="366.67" width="26.89" height="26.34" fill="#b6e6ef" stroke="#0e416b" stroke-miterlimit="14.3" stroke-width="1.5"/><path d="M312,366.53a2.72,2.72,0,1,1-2.71-2.72A2.71,2.71,0,0,1,312,366.53Z" fill="#fff" stroke="#0e416b" stroke-miterlimit="14.3" stroke-width="1.5"/><path d="M437.92,392.55a2.71,2.71,0,1,0,2.71-2.71A2.71,2.71,0,0,0,437.92,392.55Z" fill="#fff" stroke="#0e416b" stroke-miterlimit="14.3" stroke-width="1.5"/><path d="M312,392.55a2.72,2.72,0,1,1-2.71-2.71A2.71,2.71,0,0,1,312,392.55Z" fill="#fff" stroke="#0e416b" stroke-miterlimit="14.3" stroke-width="1.5"/><path d="M294.77,378.06a2.72,2.72,0,1,1-2.71,2.72A2.71,2.71,0,0,1,294.77,378.06Z" fill="#fff" stroke="#0e416b" stroke-miterlimit="14.3" stroke-width="1.5"/><line x1="297.77" y1="380.74" x2="312.4" y2="368.52" fill="none" stroke="#0e416b" stroke-miterlimit="14.3" stroke-width="1.5"/><polygon points="350.99 389.57 331.42 400.87 350.99 412.17 350.99 389.57" fill="#b6e6ef" stroke="#0e416b" stroke-miterlimit="14.3" stroke-width="1.5"/><line x1="349.61" y1="415.48" x2="331.42" y2="384.04" fill="#0e416b"/><line x1="349.61" y1="415.48" x2="336.75" y2="393.24" fill="none" stroke="#0e416b" stroke-miterlimit="14.3" stroke-width="1.5"/><polygon points="340.95 393.55 331.42 384.04 334.92 397.05 340.95 393.55" fill="#0e416b"/><polygon points="417.04 389.57 397.47 400.87 417.04 412.17 417.04 389.57" fill="#b6e6ef" stroke="#0e416b" stroke-miterlimit="14.3" stroke-width="1.5"/><path d="M367,400.87a10.68,10.68,0,1,0,10.68-10.56A10.67,10.67,0,0,0,367,400.87Z" fill="#b6e6ef" stroke="#0e416b" stroke-miterlimit="14.3" stroke-width="1.5" fill-rule="evenodd"/><line x1="385.64" y1="415.48" x2="367.45" y2="384.04" fill="#0e416b"/><line x1="385.64" y1="415.48" x2="372.77" y2="393.24" fill="none" stroke="#0e416b" stroke-miterlimit="14.3" stroke-width="1.5"/><polygon points="376.98 393.55 367.45 384.04 370.95 397.05 376.98 393.55" fill="#0e416b"/><polygon points="331.17 348.04 350.73 359.33 331.17 370.63 331.17 348.04" fill="#b6e6ef" stroke="#0e416b" stroke-miterlimit="14.3" stroke-width="1.5"/><line x1="332.54" y1="373.94" x2="350.73" y2="342.51" fill="#0e416b"/><line x1="332.54" y1="373.94" x2="345.41" y2="351.71" fill="none" stroke="#0e416b" stroke-miterlimit="14.3" stroke-width="1.5"/><polygon points="347.23 355.51 350.73 342.5 341.2 352.02 347.23 355.51" fill="#0e416b"/><polygon points="397.22 348.04 416.79 359.33 397.22 370.63 397.22 348.04" fill="#b6e6ef" stroke="#0e416b" stroke-miterlimit="14.3" stroke-width="1.5"/><path d="M388.15,359.34a10.68,10.68,0,1,1-10.68-10.57,10.67,10.67,0,0,1,10.68,10.57Z" fill="#b6e6ef" stroke="#0e416b" stroke-miterlimit="14.3" stroke-width="1.5" fill-rule="evenodd"/><line x1="369.55" y1="373.94" x2="387.74" y2="342.51" fill="#0e416b"/><line x1="369.55" y1="373.94" x2="382.41" y2="351.71" fill="none" stroke="#0e416b" stroke-miterlimit="14.3" stroke-width="1.5"/><polygon points="384.24 355.51 387.74 342.5 378.2 352.02 384.24 355.51" fill="#0e416b"/><polygon points="491.08 360.85 479.79 380.42 468.49 360.85 491.08 360.85" fill="#b1b3b6" stroke="#0e416b" stroke-miterlimit="14.3" stroke-width="1.5"/><rect x="288.98" y="220.93" width="173.18" height="82.5" fill="#6ecce0" stroke="#0e416b" stroke-miterlimit="14.3" stroke-width="1.5"/><polyline points="309.25 245.47 309.25 241.77 440.63 241.77 440.63 246.68" fill="none" stroke="#0e416b" stroke-miterlimit="14.3" stroke-width="1.5"/><polyline points="309.25 275 309.25 282.71 440.63 282.71 440.63 277.8" fill="none" stroke="#0e416b" stroke-miterlimit="14.3" stroke-width="1.5"/><rect x="428.21" y="248.58" width="26.89" height="26.34" transform="translate(883.32 523.5) rotate(-180)" fill="#b6e6ef" stroke="#0e416b" stroke-miterlimit="14.3" stroke-width="1.5"/><path d="M437.92,248.43a2.71,2.71,0,1,0,2.71-2.71A2.71,2.71,0,0,0,437.92,248.43Z" fill="#fff" stroke="#0e416b" stroke-miterlimit="14.3" stroke-width="1.5"/><path d="M455.11,260a2.72,2.72,0,1,0,2.71,2.71A2.71,2.71,0,0,0,455.11,260Z" fill="#fff" stroke="#0e416b" stroke-miterlimit="14.3" stroke-width="1.5"/><line x1="479.79" y1="262.68" x2="458.07" y2="262.68" fill="none" stroke="#0e416b" stroke-miterlimit="14.3" stroke-width="1.5"/><line x1="452.11" y1="262.64" x2="437.47" y2="250.43" fill="none" stroke="#0e416b" stroke-miterlimit="14.3" stroke-width="1.5"/><rect x="294.77" y="248.58" width="26.89" height="26.34" fill="#b6e6ef" stroke="#0e416b" stroke-miterlimit="14.3" stroke-width="1.5"/><path d="M312,248.43a2.72,2.72,0,1,1-2.71-2.71A2.72,2.72,0,0,1,312,248.43Z" fill="#fff" stroke="#0e416b" stroke-miterlimit="14.3" stroke-width="1.5"/><path d="M437.92,274.45a2.71,2.71,0,1,0,2.71-2.71A2.71,2.71,0,0,0,437.92,274.45Z" fill="#fff" stroke="#0e416b" stroke-miterlimit="14.3" stroke-width="1.5"/><path d="M312,274.45a2.72,2.72,0,1,1-2.71-2.71A2.72,2.72,0,0,1,312,274.45Z" fill="#fff" stroke="#0e416b" stroke-miterlimit="14.3" stroke-width="1.5"/><path d="M294.77,260a2.72,2.72,0,1,1-2.71,2.71A2.71,2.71,0,0,1,294.77,260Z" fill="#fff" stroke="#0e416b" stroke-miterlimit="14.3" stroke-width="1.5"/><polyline points="291.8 262.68 274.09 262.68 274.09 380.77 291.8 380.77" fill="none" stroke="#0e416b" stroke-miterlimit="14.3" stroke-width="1.5"/><line x1="297.77" y1="262.64" x2="312.4" y2="250.43" fill="none" stroke="#0e416b" stroke-miterlimit="14.3" stroke-width="1.5"/><polygon points="350.99 271.47 331.42 282.77 350.99 294.07 350.99 271.47" fill="#b6e6ef" stroke="#0e416b" stroke-miterlimit="14.3" stroke-width="1.5"/><line x1="349.61" y1="297.38" x2="331.42" y2="265.94" fill="#0e416b"/><line x1="349.61" y1="297.38" x2="336.75" y2="275.15" fill="none" stroke="#0e416b" stroke-miterlimit="14.3" stroke-width="1.5"/><polygon points="340.95 275.46 331.42 265.94 334.92 278.95 340.95 275.46" fill="#0e416b"/><polygon points="417.04 271.47 397.47 282.77 417.04 294.07 417.04 271.47" fill="#b6e6ef" stroke="#0e416b" stroke-miterlimit="14.3" stroke-width="1.5"/><path d="M367,282.77a10.68,10.68,0,1,0,10.68-10.56A10.67,10.67,0,0,0,367,282.77Z" fill="#b6e6ef" stroke="#0e416b" stroke-miterlimit="14.3" stroke-width="1.5" fill-rule="evenodd"/><line x1="385.64" y1="297.38" x2="367.45" y2="265.94" fill="#0e416b"/><line x1="385.64" y1="297.38" x2="372.77" y2="275.15" fill="none" stroke="#0e416b" stroke-miterlimit="14.3" stroke-width="1.5"/><polygon points="376.98 275.46 367.45 265.94 370.95 278.95 376.98 275.46" fill="#0e416b"/><polygon points="331.17 229.94 350.73 241.24 331.17 252.54 331.17 229.94" fill="#b6e6ef" stroke="#0e416b" stroke-miterlimit="14.3" stroke-width="1.5"/><line x1="332.54" y1="255.85" x2="350.73" y2="224.41" fill="#0e416b"/><line x1="332.54" y1="255.85" x2="345.41" y2="233.61" fill="none" stroke="#0e416b" stroke-miterlimit="14.3" stroke-width="1.5"/><polygon points="347.23 237.42 350.73 224.41 341.2 233.93 347.23 237.42" fill="#0e416b"/><polygon points="397.22 229.94 416.79 241.24 397.22 252.54 397.22 229.94" fill="#b6e6ef" stroke="#0e416b" stroke-miterlimit="14.3" stroke-width="1.5"/><path d="M388.15,241.24a10.68,10.68,0,1,1-10.68-10.56,10.67,10.67,0,0,1,10.68,10.56Z" fill="#b6e6ef" stroke="#0e416b" stroke-miterlimit="14.3" stroke-width="1.5" fill-rule="evenodd"/><line x1="369.55" y1="255.85" x2="387.74" y2="224.41" fill="#0e416b"/><line x1="369.55" y1="255.85" x2="382.41" y2="233.61" fill="none" stroke="#0e416b" stroke-miterlimit="14.3" stroke-width="1.5"/><polygon points="384.24 237.42 387.74 224.41 378.2 233.93 384.24 237.42" fill="#0e416b"/><polygon points="491.08 242.76 479.79 262.32 468.49 242.76 491.08 242.76" fill="#b1b3b6" stroke="#0e416b" stroke-miterlimit="14.3" stroke-width="1.5"/><path d="M385.15,318.16V320H383.3v-1.88Zm0,4V324H383.3v-1.89Zm0,4V328H383.3v-1.88Z" fill="#0e416b"/><path d="M371.39,320.58H373v.86h0a2.19,2.19,0,0,1,1.89-1c1.81,0,2.27,1,2.27,2.55v3.82H375.5v-3.51c0-1-.29-1.52-1.09-1.52s-1.32.52-1.32,1.78v3.25h-1.7Z" fill="#0e416b"/><rect x="0.75" y="2.5" width="108.01" height="419.02" fill="#6ecce0" stroke="#0e416b" stroke-miterlimit="14.3" stroke-width="1.5"/><g id="e8ef05de-ca95-413c-9781-08ef9f25c5b3" data-name="Digit..."><path d="M37.27,161.57H41c2.22,0,3.89,1.39,3.89,4.23,0,2.48-1.27,4.33-3.89,4.33H37.27Zm1.88,7h1.68c1.09,0,2.14-.67,2.14-2.57,0-1.73-.6-2.83-2.47-2.83H39.15Z" fill="#0e416b"/><path d="M47.73,163H46v-1.4h1.7Zm-1.7,1h1.7v6.2H46Z" fill="#0e416b"/><path d="M55,169.74c0,1-.36,2.74-3.22,2.74-1.22,0-2.65-.57-2.73-2h1.69a1.15,1.15,0,0,0,1.27.85c1,0,1.38-.64,1.37-1.53V169h0a2.08,2.08,0,0,1-1.85,1c-1.86,0-2.66-1.41-2.66-3.12s.93-3.07,2.67-3.07a1.92,1.92,0,0,1,1.84,1h0v-.83H55ZM53.42,167c0-1-.35-1.9-1.45-1.9s-1.38.84-1.38,1.76.33,1.86,1.38,1.86A1.53,1.53,0,0,0,53.42,167Z" fill="#0e416b"/><path d="M58.16,163h-1.7v-1.4h1.7Zm-1.7,1h1.7v6.2h-1.7Z" fill="#0e416b"/><path d="M61.66,163.93h1.25v1.14H61.66v3.07c0,.58.15.72.72.72a2.38,2.38,0,0,0,.53-.05v1.33a6.27,6.27,0,0,1-1,.06c-1.05,0-2-.24-2-1.47v-3.66h-1v-1.14h1v-1.86h1.7Z" fill="#0e416b"/><path d="M63.66,165.84c.09-1.6,1.52-2.08,2.91-2.08s2.72.28,2.72,1.77v3.22a3.09,3.09,0,0,0,.22,1.38H67.78a2.37,2.37,0,0,1-.12-.6,2.81,2.81,0,0,1-2.08.77c-1.18,0-2.12-.59-2.12-1.86s1.06-1.74,2.12-1.88,2-.12,2-.82-.5-.84-1.1-.84-1.07.27-1.13.94Zm3.93,1.26a3.5,3.5,0,0,1-1.41.36c-.53.11-1,.29-1,.91s.49.79,1,.79a1.27,1.27,0,0,0,1.38-1.43Z" fill="#0e416b"/><path d="M70.66,161.57h1.71v8.56H70.66Z" fill="#0e416b"/><path d="M40.74,176.45a1.86,1.86,0,0,0-1.87-1.5c-1.69,0-2.33,1.44-2.33,2.94s.64,2.86,2.33,2.86a1.92,1.92,0,0,0,1.94-1.92h1.82a3.61,3.61,0,0,1-3.76,3.51,4.13,4.13,0,0,1-4.21-4.45c0-2.55,1.56-4.53,4.21-4.53a3.48,3.48,0,0,1,3.69,3.09Z" fill="#0e416b"/><path d="M46.75,175.76a3.27,3.27,0,1,1-3.2,3.28A3.05,3.05,0,0,1,46.75,175.76Zm0,5.26c1.17,0,1.51-1,1.51-2s-.34-2-1.51-2-1.5,1-1.5,2S45.6,181,46.75,181Z" fill="#0e416b"/><path d="M55.5,181.34h0a2.08,2.08,0,0,1-1.89,1c-1.87,0-2.78-1.61-2.78-3.32s.92-3.22,2.75-3.22a2.13,2.13,0,0,1,1.83.93h0v-3.12h1.7v8.56H55.5ZM54,177.05c-1.11,0-1.5,1-1.5,2s.45,2,1.5,2,1.47-1,1.47-2S55.12,177.05,54,177.05Z" fill="#0e416b"/><path d="M60.16,175H58.45v-1.4h1.71Zm-1.71,1h1.71v6.2H58.45Z" fill="#0e416b"/><path d="M61.5,175.93h1.62v.86h0a2.21,2.21,0,0,1,1.89-1c1.81,0,2.27,1,2.27,2.56v3.81h-1.7v-3.5c0-1-.3-1.52-1.1-1.52s-1.31.51-1.31,1.77v3.25H61.5Z" fill="#0e416b"/><path d="M74.58,181.74c0,1-.36,2.74-3.22,2.74-1.22,0-2.65-.57-2.73-2h1.69a1.15,1.15,0,0,0,1.27.85c1,0,1.38-.64,1.37-1.53V181h0a2.11,2.11,0,0,1-1.86,1c-1.86,0-2.65-1.41-2.65-3.12s.92-3.07,2.66-3.07a1.94,1.94,0,0,1,1.85,1h0v-.83h1.62ZM73,179c0-1-.35-1.9-1.45-1.9s-1.38.84-1.38,1.76.34,1.86,1.38,1.86A1.53,1.53,0,0,0,73,179Z" fill="#0e416b"/><path d="M20.49,185.57h6.4v1.58H22.37V189h4.15v1.46H22.37v2.1H27v1.58h-6.5Z" fill="#0e416b"/><path d="M34.13,196.31H32.42v-3h0a2.23,2.23,0,0,1-1.95,1c-1.14,0-2.63-.83-2.63-3.23,0-1.7.9-3.31,2.78-3.31a2,2,0,0,1,1.88,1h0v-.79h1.62ZM31,193c1.1,0,1.48-.94,1.48-2s-.38-2-1.45-2-1.51,1-1.51,2S29.88,193,31,193Z" fill="#0e416b"/><path d="M41.23,194.13H39.61v-.86h0a2.23,2.23,0,0,1-1.9,1c-1.81,0-2.26-1-2.26-2.55v-3.82h1.7v3.5c0,1,.3,1.53,1.09,1.53s1.32-.52,1.32-1.78v-3.25h1.7Z" fill="#0e416b"/><path d="M42.46,189.84c.09-1.6,1.52-2.08,2.91-2.08s2.73.28,2.73,1.77v3.22a3.26,3.26,0,0,0,.21,1.38H46.58a2.9,2.9,0,0,1-.12-.6,2.8,2.8,0,0,1-2.08.77c-1.18,0-2.11-.59-2.11-1.86s1-1.74,2.11-1.88,2-.12,2-.82-.5-.84-1.1-.84-1.07.27-1.13.94Zm3.93,1.26a3.45,3.45,0,0,1-1.41.36c-.53.11-1,.29-1,.91s.49.79,1,.79a1.27,1.27,0,0,0,1.38-1.43Z" fill="#0e416b"/><path d="M49.47,185.57h1.7v8.56h-1.7Z" fill="#0e416b"/><path d="M54.27,187H52.56v-1.4h1.71Zm-1.71,1h1.71v6.2H52.56Z" fill="#0e416b"/><path d="M55.23,192.85l3.22-3.64h-3v-1.28H60.7v1.28l-3.23,3.64h3.45v1.28H55.23Z" fill="#0e416b"/><path d="M61.77,189.84c.09-1.6,1.52-2.08,2.91-2.08,1.24,0,2.72.28,2.72,1.77v3.22a3.09,3.09,0,0,0,.22,1.38H65.89a2.37,2.37,0,0,1-.12-.6,2.81,2.81,0,0,1-2.08.77c-1.18,0-2.12-.59-2.12-1.86s1.06-1.74,2.12-1.88,2-.12,2-.82-.5-.84-1.1-.84-1.07.27-1.13.94Zm3.93,1.26a3.5,3.5,0,0,1-1.41.36c-.53.11-1,.29-1,.91s.49.79,1,.79a1.27,1.27,0,0,0,1.38-1.43Z" fill="#0e416b"/><path d="M70.89,187.93h1.24v1.14H70.89v3.07c0,.58.14.72.71.72a2.32,2.32,0,0,0,.53-.05v1.33a6.2,6.2,0,0,1-1,.06c-1,0-2-.24-2-1.47v-3.66h-1v-1.14h1v-1.86h1.71Z" fill="#0e416b"/><path d="M74.7,187H73v-1.4h1.7Zm-1.7,1h1.7v6.2H73Z" fill="#0e416b"/><path d="M79.06,187.76A3.27,3.27,0,1,1,75.85,191,3,3,0,0,1,79.06,187.76Zm0,5.26c1.16,0,1.51-1,1.51-2s-.35-2-1.51-2-1.5,1-1.5,2S77.91,193,79.06,193Z" fill="#0e416b"/><path d="M83.38,187.93H85v.86h0a2.23,2.23,0,0,1,1.9-1c1.81,0,2.26,1,2.26,2.56v3.81h-1.7v-3.5c0-1-.3-1.52-1.09-1.52s-1.32.51-1.32,1.77v3.25h-1.7Z" fill="#0e416b"/><path d="M10.75,203.29c0,1.14.89,1.58,1.89,1.58.66,0,1.67-.19,1.67-1.06s-1.28-1.08-2.54-1.42-2.56-.83-2.56-2.43c0-1.76,1.66-2.6,3.21-2.6,1.78,0,3.43.78,3.43,2.76H14c-.06-1-.79-1.29-1.69-1.29-.6,0-1.29.25-1.29,1s.4.74,2.55,1.29c.62.16,2.54.56,2.54,2.5,0,1.57-1.23,2.75-3.56,2.75-1.89,0-3.67-.94-3.64-3.05Z" fill="#0e416b"/><path d="M20.13,206.91a1.94,1.94,0,0,1-2.13,1.4,9.24,9.24,0,0,1-1.05-.06v-1.4a8.26,8.26,0,0,0,1,.06.8.8,0,0,0,.59-1.16l-2.19-5.82h1.83l1.4,4.25h0L21,199.93h1.76Z" fill="#0e416b"/><path d="M23.3,199.93h1.62v.86h0a2.21,2.21,0,0,1,1.89-1c1.81,0,2.27,1,2.27,2.56v3.81H27.41v-3.5c0-1-.3-1.52-1.09-1.52s-1.32.51-1.32,1.77v3.25H23.3Z" fill="#0e416b"/><path d="M34.64,202.11a1.16,1.16,0,0,0-1.26-1.06c-1.09,0-1.45,1.1-1.45,2s.35,2,1.41,2a1.32,1.32,0,0,0,1.36-1.26h1.64a2.76,2.76,0,0,1-3,2.54,3,3,0,0,1-3.13-3.18,3.07,3.07,0,0,1,3.16-3.36,2.64,2.64,0,0,1,2.92,2.35Z" fill="#0e416b"/><path d="M37.3,197.57H39v3.22h0a2.21,2.21,0,0,1,1.81-1c1.82,0,2.27,1,2.27,2.56v3.81h-1.7v-3.5c0-1-.3-1.52-1.09-1.52s-1.32.51-1.32,1.77v3.25H37.3Z" fill="#0e416b"/><path d="M44.42,199.93H46v1.15h0a2.2,2.2,0,0,1,2-1.32,1.43,1.43,0,0,1,.37.06v1.59a2.74,2.74,0,0,0-.61-.06c-1.24,0-1.68.9-1.68,2v2.79h-1.7Z" fill="#0e416b"/><path d="M52.1,199.76A3.27,3.27,0,1,1,48.9,203,3,3,0,0,1,52.1,199.76Zm0,5.26c1.16,0,1.51-1,1.51-2s-.35-2-1.51-2-1.5,1-1.5,2S51,205,52.1,205Z" fill="#0e416b"/><path d="M56.42,199.93H58v.86h0a2.21,2.21,0,0,1,1.89-1c1.81,0,2.27,1,2.27,2.56v3.81H60.53v-3.5c0-1-.3-1.52-1.09-1.52s-1.32.51-1.32,1.77v3.25h-1.7Z" fill="#0e416b"/><path d="M65.29,199H63.58v-1.4h1.71Zm-1.71,1h1.71v6.2H63.58Z" fill="#0e416b"/><path d="M66.25,204.85l3.23-3.64h-3v-1.28h5.23v1.28l-3.23,3.64H72v1.28h-5.7Z" fill="#0e416b"/><path d="M72.79,201.84c.09-1.6,1.52-2.08,2.91-2.08,1.24,0,2.73.28,2.73,1.77v3.22a3.26,3.26,0,0,0,.21,1.38H76.91a2.9,2.9,0,0,1-.12-.6,2.81,2.81,0,0,1-2.08.77c-1.18,0-2.11-.59-2.11-1.86s1.05-1.74,2.11-1.88,2-.12,2-.82-.5-.84-1.1-.84-1.07.27-1.13.94Zm3.93,1.26a3.5,3.5,0,0,1-1.41.36c-.53.11-1,.29-1,.91s.49.79,1,.79a1.27,1.27,0,0,0,1.38-1.43Z" fill="#0e416b"/><path d="M81.91,199.93h1.24v1.14H81.91v3.07c0,.58.14.72.72.72a2.29,2.29,0,0,0,.52-.05v1.33a6.2,6.2,0,0,1-1,.06c-1,0-2-.24-2-1.47v-3.66h-1v-1.14h1v-1.86h1.71Z" fill="#0e416b"/><path d="M85.72,199H84v-1.4h1.7Zm-1.7,1h1.7v6.2H84Z" fill="#0e416b"/><path d="M90.08,199.76a3.27,3.27,0,1,1-3.2,3.28A3,3,0,0,1,90.08,199.76Zm0,5.26c1.16,0,1.51-1,1.51-2s-.35-2-1.51-2-1.5,1-1.5,2S88.93,205,90.08,205Z" fill="#0e416b"/><path d="M94.4,199.93H96v.86h0a2.21,2.21,0,0,1,1.89-1c1.81,0,2.27,1,2.27,2.56v3.81H98.51v-3.5c0-1-.3-1.52-1.09-1.52s-1.32.51-1.32,1.77v3.25H94.4Z" fill="#0e416b"/></g><path d="M204.18,204v1.88h-1.85V204Zm0,4v1.88h-1.85V208Zm0,4v1.89h-1.85V212Z" fill="#0e416b"/><path d="M186.59,206.41h1.6v.84h0a2.25,2.25,0,0,1,1.89-1,1.82,1.82,0,0,1,1.81,1,2.26,2.26,0,0,1,1.87-1,2,2,0,0,1,2.27,2.22v4.15h-1.7V209.1c0-.83-.07-1.51-1.05-1.51s-1.14.79-1.14,1.57v3.45h-1.7v-3.48c0-.71.05-1.54-1-1.54-.34,0-1.15.21-1.15,1.42v3.6h-1.7Z" fill="#0e416b"/></svg>